<?xml version="1.0" encoding="UTF-8" standalone="no"?>
<!-- Created with Inkscape (http://www.inkscape.org/) -->

<svg
   width="59.771919mm"
   height="33.519402mm"
   viewBox="0 0 59.771919 33.519402"
   version="1.1"
   id="svg1"
   inkscape:version="1.3 (0e150ed, 2023-07-21)"
   sodipodi:docname="logo.svg"
   xmlns:inkscape="http://www.inkscape.org/namespaces/inkscape"
   xmlns:sodipodi="http://sodipodi.sourceforge.net/DTD/sodipodi-0.dtd"
   xmlns="http://www.w3.org/2000/svg"
   xmlns:svg="http://www.w3.org/2000/svg">
  <sodipodi:namedview
     id="namedview1"
     pagecolor="#505050"
     bordercolor="#ffffff"
     borderopacity="1"
     inkscape:showpageshadow="0"
     inkscape:pageopacity="0"
     inkscape:pagecheckerboard="1"
     inkscape:deskcolor="#d1d1d1"
     inkscape:document-units="px"
     showguides="false"
     inkscape:zoom="1.8387205"
     inkscape:cx="102.78887"
     inkscape:cy="99.52573"
     inkscape:window-width="1366"
     inkscape:window-height="715"
     inkscape:window-x="-5"
     inkscape:window-y="-5"
     inkscape:window-maximized="1"
     inkscape:current-layer="layer1" />
  <defs
     id="defs1" />
  <g
     inkscape:label="Layer 1"
     inkscape:groupmode="layer"
     id="layer1"
     transform="translate(-17.501294,-141.5511)">
    <rect
       style="fill:#000000;stroke:none;stroke-width:2.24297;stroke-linecap:butt;stroke-linejoin:miter;stroke-dasharray:none;paint-order:fill markers stroke"
       id="rect26"
       width="59.771923"
       height="33.519402"
       x="17.501293"
       y="141.5511"
       ry="0" />
    <g
       id="g59"
       transform="translate(0,1.0432827)">
      <path
         d="m 28.126624,145.50487 q 1.221585,0 2.111382,0.0603 0.904878,0.0452 1.643861,0.16589 0.754065,0.10557 1.251748,0.31671 0.497683,0.21114 0.859634,0.49768 0.361952,0.27147 0.558009,0.69374 0.211138,0.42228 0.301626,0.91996 0.09049,0.49768 0.09049,1.17634 h -3.740162 q 0,-0.2413 -0.09049,-0.37703 -0.07541,-0.13573 -0.361951,-0.25638 -0.286545,-0.13573 -0.904878,-0.18098 -0.618333,-0.0603 -1.62878,-0.0603 -1.342236,0 -1.960569,0.0603 -0.618334,0.0603 -0.784228,0.15082 -0.165894,0.0905 -0.165894,0.3167 0.01508,0.19606 0.407195,0.27147 0.407195,0.0603 2.413008,0.22622 0.03016,0 0.04524,0.0151 3.981463,0.3167 5.052235,0.57309 1.402561,0.33179 1.809756,1.13109 0.271464,0.54293 0.271464,1.56846 0,0.7239 -0.10557,1.19142 -0.09049,0.46752 -0.392113,0.85964 -0.286545,0.39211 -0.754065,0.61833 -0.467521,0.21114 -1.296992,0.36195 -0.829472,0.15081 -1.900244,0.21114 -1.055691,0.0452 -2.639227,0.0452 -1.085854,0 -1.885163,-0.0302 -0.784227,-0.0302 -1.477967,-0.10557 -0.678659,-0.0754 -1.131098,-0.19606 -0.452439,-0.12065 -0.81439,-0.33178 -0.361951,-0.21114 -0.573089,-0.45244 -0.196057,-0.25639 -0.331789,-0.6485 -0.135732,-0.39211 -0.180975,-0.82947 -0.04524,-0.43736 -0.04524,-1.04061 h 3.634593 q 0,0.34687 0.180975,0.49768 0.196057,0.13573 0.799309,0.21114 0.618334,0.0603 1.990732,0.0603 0.12065,0 0.361951,0 1.719268,0 2.081219,-0.0603 0.377033,-0.0603 0.377033,-0.39211 0,-0.19606 -0.256382,-0.25639 -0.256382,-0.0603 -1.417642,-0.13573 -0.844553,-0.0603 -1.402561,-0.10557 -1.010447,-0.0905 -1.538293,-0.13573 -0.512764,-0.0603 -1.28191,-0.15081 -0.754065,-0.0905 -1.146179,-0.19606 -0.377032,-0.10557 -0.889797,-0.27146 -0.497683,-0.18098 -0.738983,-0.39211 -0.22622,-0.22622 -0.482602,-0.52785 -0.241301,-0.31671 -0.331789,-0.70882 -0.09049,-0.4072 -0.09049,-0.90488 0,-0.60325 0.07541,-1.05569 0.09049,-0.45244 0.286545,-0.79931 0.211138,-0.36195 0.452439,-0.61833 0.256382,-0.25638 0.678658,-0.43736 0.437358,-0.18098 0.889797,-0.28654 0.452439,-0.10557 1.131097,-0.1659 0.69374,-0.0603 1.357317,-0.0754 0.663578,-0.0151 1.628781,-0.0151 z m 17.192663,0 4.750609,10.55691 h -4.071951 l -0.799308,-1.77959 h -5.233211 l -0.799309,1.77959 h -4.05687 l 4.750609,-10.55691 z m -4.102114,5.7309 h 2.729716 l -1.372399,-2.77496 z"
         id="text26"
         style="font-size:15.0813px;line-height:1;font-family:Hanson;-inkscape-font-specification:Hanson;text-align:justify;letter-spacing:0px;word-spacing:0px;fill:#ffffff;stroke-width:0.264583;paint-order:fill markers stroke"
         aria-label="SA" />
      <path
         d="m 32.666095,158.44309 h 4.207683 v 10.58708 h -3.513943 v -5.02208 l -2.714634,5.02208 h -2.89561 l -2.609065,-4.99191 v 4.99191 h -3.513942 v -10.58708 h 3.513942 l 0.69374,0.0151 3.408374,5.85154 z m 17.479226,3.89098 q 0,2.5035 -1.945488,3.57427 l 2.171707,3.12183 -4.056869,-0.0151 -1.809756,-2.48842 H 41.32276 v 2.5035 h -3.513943 v -10.58708 h 3.513943 4.268008 q 0.301626,0 0.57309,0.0151 0.271463,0.0151 0.754065,0.10556 0.497682,0.0754 0.889796,0.22622 0.407195,0.13574 0.859634,0.43736 0.452439,0.28655 0.754065,0.69374 0.316708,0.39212 0.512764,1.01045 0.211139,0.61833 0.211139,1.40256 z M 45.25898,163.435 q 1.312073,0 1.312073,-0.99536 0,-0.90488 -1.372399,-0.90488 H 41.32276 v 1.90024 z"
         id="text27"
         style="font-size:15.0813px;line-height:1;font-family:Hanson;-inkscape-font-specification:Hanson;text-align:justify;letter-spacing:0px;word-spacing:0px;fill:#ffffff;stroke-width:0.264583;paint-order:fill markers stroke"
         aria-label="MR" />
    </g>
    <rect
       style="fill:none;fill-opacity:1;stroke:#ffffff;stroke-width:1.24802;stroke-linecap:butt;stroke-linejoin:miter;stroke-dasharray:none;paint-order:fill markers stroke"
       id="rect60"
       width="20.422995"
       height="22.938734"
       x="52.0602"
       y="146.51071"
       ry="0" />
    <circle
       style="opacity:0.5;fill:#545454;fill-opacity:1;stroke:none;stroke-width:0.677819;stroke-linecap:butt;stroke-linejoin:miter;stroke-dasharray:none;paint-order:fill markers stroke"
       id="circle60"
       cx="60.42667"
       cy="156.32547"
       r="6.4839892" />
    <circle
       style="opacity:0.5;fill:#a8a8a8;fill-opacity:1;stroke:none;stroke-width:0.135564;stroke-linecap:butt;stroke-linejoin:miter;stroke-dasharray:none;paint-order:fill markers stroke"
       id="circle62"
       cx="62.183918"
       cy="157.94957"
       r="6.4839892" />
    <circle
       style="opacity:0.5;fill:#ffffff;fill-opacity:1;stroke:none;stroke-width:0.135564;stroke-linecap:butt;stroke-linejoin:miter;stroke-dasharray:none;paint-order:fill markers stroke"
       id="circle61"
       cx="64.116722"
       cy="159.63467"
       r="6.4839892" />
  </g>
</svg>
